<?xml version="1.0" encoding="UTF-8"?>
<svg version="1.1" xmlns="http://www.w3.org/2000/svg" width="600" height="200">
<path d="M0 0 C3.3 0 6.6 0 10 0 C10 25.08 10 50.16 10 76 C6.7 76 3.4 76 0 76 C-0.33 74.35 -0.66 72.7 -1 71 C-1.928125 71.804375 -2.85625 72.60875 -3.8125 73.4375 C-8.80925423 77.76802033 -14.10296885 77.40427893 -20.48046875 77.33203125 C-26.56916163 76.75762626 -29.85017938 74.53543866 -33.7421875 69.9453125 C-40.2688387 60.92042161 -40.77126057 51.87110143 -40 41 C-38.5837404 32.33582361 -34.70451871 26.08709893 -28 20.5 C-22.5097303 17.75486515 -15.92958266 18.29012039 -10 19 C-6.3117953 20.28966635 -3.76958748 22.23041252 -1 25 C-0.67 16.75 -0.34 8.5 0 0 Z M-25.59375 32.03125 C-29.65012896 37.71018054 -30.91697165 45.15500033 -30 52 C-28.92355509 58.22592459 -27.28338311 63.11736361 -22.09765625 67.00390625 C-18.11641553 68.89443955 -14.27433379 68.71238896 -10 68 C-5.62884615 66.38457358 -3.84661862 63.7519095 -1.78125 59.74609375 C1.50854667 52.3933982 0.74239795 43.37984449 -2.0078125 35.98046875 C-3.82124177 32.3607497 -6.39696743 29.80151629 -10 28 C-16.29205124 27.09127596 -20.978442 27.415942 -25.59375 32.03125 Z " fill="#C0C5CE" transform="translate(92,68)"/>
<path d="M0 0 C1.21171875 -0.02578125 2.4234375 -0.0515625 3.671875 -0.078125 C9.38072542 0.44539403 13.2063511 2.64972283 16.9375 6.9375 C23.14294729 14.45800897 24.74037652 22.88276739 24 32.49609375 C22.65398358 42.89166699 20.20251264 49.11918801 12.15234375 55.90234375 C6.81223925 59.68537466 -0.52118189 58.78635058 -6.75 58.25 C-10.16377159 56.96143863 -12.18451388 54.81548612 -14.75 52.25 C-15.08 60.83 -15.41 69.41 -15.75 78.25 C-19.05 78.25 -22.35 78.25 -25.75 78.25 C-25.75 53.17 -25.75 28.09 -25.75 2.25 C-22.45 2.25 -19.15 2.25 -15.75 2.25 C-15.42 3.57 -15.09 4.89 -14.75 6.25 C-13.80125 5.445625 -12.8525 4.64125 -11.875 3.8125 C-7.83790346 0.38974424 -5.36244555 0.06787906 0 0 Z M-12.75 14.25 C-15.33265357 19.2917352 -16.27281971 23.48950867 -16.1875 29.1875 C-16.18065186 29.8897168 -16.17380371 30.59193359 -16.16674805 31.31542969 C-15.94602677 38.43472421 -14.2251989 42.3380013 -9.625 47.75 C-5.33877082 49.98629349 -1.48365495 50.00101256 3.25 49.25 C7.73035444 47.05055327 10.11312614 44.74868182 12.25 40.25 C14.52735713 33.11321182 14.40709293 24.06291639 11.625 17.125 C9.51245141 13.1859771 7.44677225 11.03751411 3.25 9.25 C-3.77444246 8.06019216 -8.03868483 8.84922408 -12.75 14.25 Z " fill="#C0C5CE" transform="translate(268.75,86.75)"/>
<path d="M0 0 C5.01898255 3.18469072 8.53322373 7.65241245 10.25 13.375 C11.24545404 18.21160335 11.3812088 22.91814887 11.34765625 27.8359375 C11.3462413 28.62650543 11.34482635 29.41707336 11.34336853 30.2315979 C11.33780504 32.73777166 11.32525944 35.24385358 11.3125 37.75 C11.30748028 39.45702995 11.3029182 41.16406132 11.29882812 42.87109375 C11.28784759 47.03909748 11.27060839 51.20703321 11.25 55.375 C7.95 55.375 4.65 55.375 1.25 55.375 C0.755 52.405 0.755 52.405 0.25 49.375 C-0.471875 50.15875 -1.19375 50.9425 -1.9375 51.75 C-7.64116717 57.07342269 -13.64568868 56.89027453 -21.13671875 56.68359375 C-26.00744981 56.26760699 -28.06251648 55.57081905 -31.75 52.375 C-36.14909408 47.07352765 -36.382108 42.26318155 -36.1171875 35.46875 C-35.56498339 30.81613661 -34.876557 28.948208 -31.75 25.375 C-24.55402928 20.46826053 -18.15467625 19.70980982 -9.625 20.0625 C-8.573125 20.08505859 -7.52125 20.10761719 -6.4375 20.13085938 C-3.87344757 20.18913329 -1.31252924 20.27087122 1.25 20.375 C-0.98216059 14.24753048 -0.98216059 14.24753048 -5.08203125 9.3359375 C-13.77690116 6.20425668 -23.35180385 8.32111049 -31.75 11.375 C-31.75 8.405 -31.75 5.435 -31.75 2.375 C-22.4773999 -2.33489211 -9.8864169 -4.47332171 0 0 Z M-25.75 33.375 C-27.06944325 36.92734722 -26.74003283 38.40440315 -25.5 42.0625 C-23.9888208 45.5599837 -23.9888208 45.5599837 -20.75 47.375 C-15.5531012 48.07662213 -11.07718256 48.00239539 -6.3125 45.75 C-0.23671796 40.11878738 0.93332766 35.38681021 1.25 27.375 C-13.44243603 26.65466829 -13.44243603 26.65466829 -25.75 33.375 Z " fill="#C0C5CE" transform="translate(428.75,88.625)"/>
<path d="M0 0 C6.62144041 4.1566311 9.87441931 10.40708488 12 17.75 C12.45824043 21.59921958 12.3125 25.49860016 12.3125 29.375 C-1.2175 29.705 -14.7475 30.035 -28.6875 30.375 C-26.26102593 40.068558 -26.26102593 40.068558 -19.6875 45.375 C-11.89060871 47.97396376 -1.9431099 47.17967391 5.578125 44.03125 C7.3125 43.375 7.3125 43.375 10.3125 43.375 C10.3125 46.345 10.3125 49.315 10.3125 52.375 C-0.0799149 56.97164505 -11.5379646 58.28035516 -22.76171875 55.65625 C-30.55070601 52.37667642 -35.77580065 46.0586634 -38.9375 38.3125 C-41.33805636 28.5372615 -40.22502858 18.00640671 -35.50390625 9.15625 C-28.06706286 -2.13595413 -12.23211168 -5.50096863 0 0 Z M-25.9296875 13.05859375 C-28.02968651 16.42583355 -28.6875 18.35634935 -28.6875 22.375 C-18.4575 22.375 -8.2275 22.375 2.3125 22.375 C0.87225363 13.8834959 0.87225363 13.8834959 -4.42578125 8.41015625 C-11.91665966 4.98168858 -20.95379197 6.31453409 -25.9296875 13.05859375 Z " fill="#C0C5CE" transform="translate(369.6875,88.625)"/>
<path d="M0 0 C6.62144041 4.1566311 9.87441931 10.40708488 12 17.75 C12.45824043 21.59921958 12.3125 25.49860016 12.3125 29.375 C-1.2175 29.705 -14.7475 30.035 -28.6875 30.375 C-26.26102593 40.068558 -26.26102593 40.068558 -19.6875 45.375 C-11.89060871 47.97396376 -1.9431099 47.17967391 5.578125 44.03125 C7.3125 43.375 7.3125 43.375 10.3125 43.375 C10.3125 46.345 10.3125 49.315 10.3125 52.375 C-0.0799149 56.97164505 -11.5379646 58.28035516 -22.76171875 55.65625 C-30.55070601 52.37667642 -35.77580065 46.0586634 -38.9375 38.3125 C-41.33805636 28.5372615 -40.22502858 18.00640671 -35.50390625 9.15625 C-28.06706286 -2.13595413 -12.23211168 -5.50096863 0 0 Z M-25.9296875 13.05859375 C-28.02968651 16.42583355 -28.6875 18.35634935 -28.6875 22.375 C-18.4575 22.375 -8.2275 22.375 2.3125 22.375 C0.87225363 13.8834959 0.87225363 13.8834959 -4.42578125 8.41015625 C-11.91665966 4.98168858 -20.95379197 6.31453409 -25.9296875 13.05859375 Z " fill="#C0C5CE" transform="translate(216.6875,88.625)"/>
<path d="M0 0 C6.62144041 4.1566311 9.87441931 10.40708488 12 17.75 C12.45824043 21.59921958 12.3125 25.49860016 12.3125 29.375 C-1.2175 29.705 -14.7475 30.035 -28.6875 30.375 C-26.26102593 40.068558 -26.26102593 40.068558 -19.6875 45.375 C-11.89060871 47.97396376 -1.9431099 47.17967391 5.578125 44.03125 C7.3125 43.375 7.3125 43.375 10.3125 43.375 C10.3125 46.345 10.3125 49.315 10.3125 52.375 C-0.0799149 56.97164505 -11.5379646 58.28035516 -22.76171875 55.65625 C-30.55070601 52.37667642 -35.77580065 46.0586634 -38.9375 38.3125 C-41.33805636 28.5372615 -40.22502858 18.00640671 -35.50390625 9.15625 C-28.06706286 -2.13595413 -12.23211168 -5.50096863 0 0 Z M-25.9296875 13.05859375 C-28.02968651 16.42583355 -28.6875 18.35634935 -28.6875 22.375 C-18.4575 22.375 -8.2275 22.375 2.3125 22.375 C0.87225363 13.8834959 0.87225363 13.8834959 -4.42578125 8.41015625 C-11.91665966 4.98168858 -20.95379197 6.31453409 -25.9296875 13.05859375 Z " fill="#C0C5CE" transform="translate(154.6875,88.625)"/>
<path d="M0 0 C5.46259604 3.00494413 7.61555422 7.40644429 9.44140625 13.19921875 C9.923712 16.6470381 9.91228872 20.00850222 9.83203125 23.484375 C9.82637146 24.4260704 9.82071167 25.36776581 9.81488037 26.33799744 C9.79268736 29.31311283 9.7425245 32.28697423 9.69140625 35.26171875 C9.67131913 37.29230018 9.65307226 39.32290069 9.63671875 41.35351562 C9.59287878 46.30255835 9.52397193 51.25067677 9.44140625 56.19921875 C6.14140625 56.19921875 2.84140625 56.19921875 -0.55859375 56.19921875 C-0.58832275 54.42877197 -0.58832275 54.42877197 -0.61865234 52.62255859 C-0.69494031 48.22781674 -0.78362159 43.83339599 -0.87597656 39.43896484 C-0.91417067 37.53994097 -0.94904 35.64084711 -0.98046875 33.74169922 C-1.02632762 31.00593112 -1.08428712 28.27064083 -1.14453125 25.53515625 C-1.15608246 24.69117279 -1.16763367 23.84718933 -1.17953491 22.97763062 C-1.29313385 18.40171817 -1.58088955 14.41981742 -3.55859375 10.19921875 C-6.59380769 9.18748077 -8.75592454 9.03348361 -11.93359375 9.01171875 C-12.86945312 8.99753906 -13.8053125 8.98335937 -14.76953125 8.96875 C-17.76780341 9.21650638 -19.88725458 9.82605668 -22.55859375 11.19921875 C-23.86927708 13.64210503 -23.86927708 13.64210503 -24.55859375 16.19921875 C-24.88859375 16.85921875 -25.21859375 17.51921875 -25.55859375 18.19921875 C-25.71565706 21.04129901 -25.81708945 23.86259182 -25.875 26.70703125 C-25.8957811 27.54765106 -25.91656219 28.38827087 -25.93797302 29.25436401 C-26.00344814 31.9442311 -26.06234395 34.63419718 -26.12109375 37.32421875 C-26.16428091 39.14584364 -26.20789527 40.96745846 -26.25195312 42.7890625 C-26.35912743 47.25901269 -26.4604006 51.72906261 -26.55859375 56.19921875 C-29.85859375 56.19921875 -33.15859375 56.19921875 -36.55859375 56.19921875 C-36.55859375 38.04921875 -36.55859375 19.89921875 -36.55859375 1.19921875 C-33.25859375 1.19921875 -29.95859375 1.19921875 -26.55859375 1.19921875 C-26.22859375 2.51921875 -25.89859375 3.83921875 -25.55859375 5.19921875 C-24.63046875 4.39484375 -23.70234375 3.59046875 -22.74609375 2.76171875 C-16.79247847 -2.39808116 -7.28647376 -2.28049942 0 0 Z " fill="#C0C5CE" transform="translate(534.55859375,87.80078125)"/>
<path d="M0 0 C1.76923828 0.01353516 1.76923828 0.01353516 3.57421875 0.02734375 C4.47785156 0.03894531 5.38148438 0.05054687 6.3125 0.0625 C6.3125 3.0325 6.3125 6.0025 6.3125 9.0625 C4.90097656 9.08376953 4.90097656 9.08376953 3.4609375 9.10546875 C-4.47171187 9.10164227 -4.47171187 9.10164227 -11.4375 12.3125 C-15.65166034 17.46314041 -16.0058314 22.15104971 -16.1015625 28.64453125 C-16.12092865 29.45871017 -16.1402948 30.2728891 -16.1602478 31.11174011 C-16.21978752 33.69938852 -16.26632583 36.28708203 -16.3125 38.875 C-16.3507034 40.63478449 -16.3897565 42.39455074 -16.4296875 44.15429688 C-16.52546782 48.45688234 -16.60959285 52.7595553 -16.6875 57.0625 C-19.9875 57.0625 -23.2875 57.0625 -26.6875 57.0625 C-26.6875 38.9125 -26.6875 20.7625 -26.6875 2.0625 C-23.3875 2.0625 -20.0875 2.0625 -16.6875 2.0625 C-16.3575 3.3825 -16.0275 4.7025 -15.6875 6.0625 C-14.759375 5.258125 -13.83125 4.45375 -12.875 3.625 C-8.75690019 0.05598016 -5.35724362 -0.05304202 0 0 Z " fill="#C0C5CE" transform="translate(483.6875,86.9375)"/>
<path d="M0 0 C3.3 0 6.6 0 10 0 C10 25.08 10 50.16 10 76 C6.7 76 3.4 76 0 76 C0 50.92 0 25.84 0 0 Z " fill="#C0C5CE" transform="translate(306,68)"/>
</svg>
